<?xml version="1.0" encoding="UTF-8" standalone="no"?>
<svg width="50" height="50" viewBox="0 0 50 50" fill="none" version="1.1" xmlns="http://www.w3.org/2000/svg">
  <circle cx="25" cy="25" r="25" fill="#1F3BB3"/>
  <path d="m 27.669695,42.916764 h -13.25 V 6.9167644 h 21 v 2.1 h -18.9 V 21.316764 h 11.15 q 0.525,0 1.075,0.038 0.541,0.036 1.204,0.158 a 14.951,14.951 0 0 1 0.021,0.004 10.096,10.096 0 0 1 2.981,0.925 9.062,9.062 0 0 1 1.531,0.962 q 1.913,1.488 2.951,3.75 a 11.538,11.538 0 0 1 1.016,4.212 13.595,13.595 0 0 1 0.021,0.751 q 0,2.7 -1.037,4.963 -1.038,2.262 -2.95,3.75 a 9.408,9.408 0 0 1 -3.864,1.768 11.319,11.319 0 0 1 -0.649,0.119 q -0.675,0.1 -1.225,0.15 -0.55,0.05 -1.075,0.05 z m -11.15,-19.5 v 17.4 h 11.15 q 0.325,0 0.746,-0.029 a 17.439,17.439 0 0 0 0.266,-0.021 q 0.588,-0.05 1.188,-0.15 a 7.913,7.913 0 0 0 2.445,-0.877 6.699,6.699 0 0 0 2.293,-2.16 q 1.612,-2.438 1.612,-5.463 0,-3.05 -1.612,-5.475 a 6.856,6.856 0 0 0 -4.073,-2.872 9.206,9.206 0 0 0 -0.665,-0.153 q -0.6,-0.125 -1.187,-0.163 a 21.77,21.77 0 0 0 -0.418,-0.022 q -0.206,-0.01 -0.387,-0.013 a 10.984,10.984 0 0 0 -0.208,-0.002 z"
     fill="#ffffff"/>
</svg>
